HIERARCHY
ROOT SpineBase
{
  OFFSET 0.000000 0.000000 0.000000
  CHANNELS 6 Xposition Yposition Zposition Zrotation Xrotation Yrotation
  JOINT SpineMid
  {
    OFFSET 0.000000 32.977149 0.000000
    CHANNELS 3 Zrotation Xrotation Yrotation
    JOINT SpineShoulder
    {
      OFFSET -0.045585 24.148562 -0.810377
      CHANNELS 3 Zrotation Xrotation Yrotation
      JOINT Neck
      {
        OFFSET -0.024070 7.879020 -0.617871
        CHANNELS 3 Zrotation Xrotation Yrotation
        JOINT Head
        {
          OFFSET -7.577749 10.704568 5.477318
          CHANNELS 3 Zrotation Xrotation Yrotation
          End Site
          {
            OFFSET 0 0 0
          }
        }
      }
      JOINT ShoulderLeft
      {
        OFFSET -14.314911 -3.287486 13.444748
        CHANNELS 3 Zrotation Xrotation Yrotation
        JOINT ElbowLeft
        {
          OFFSET 25.163820 -16.196246 4.901960
          CHANNELS 3 Zrotation Xrotation Yrotation
          JOINT WristLeft
          {
            OFFSET 0.334538 -22.443345 -21.580277
            CHANNELS 3 Zrotation Xrotation Yrotation
            JOINT HandLeft
            {
              OFFSET -7.627045 -14.038181 -5.804536
              CHANNELS 3 Zrotation Xrotation Yrotation
              JOINT HandTipLeft
              {
                OFFSET -1.133816 -5.143585 -1.427467
                CHANNELS 3 Zrotation Xrotation Yrotation
                End Site
                {
                  OFFSET 0 0 0
                }
              }
              JOINT ThumbLeft
              {
                OFFSET -3.812752 5.706677 -5.517554
                CHANNELS 3 Zrotation Xrotation Yrotation
                End Site
                {
                  OFFSET 0 0 0
                }
              }
            }
          }
        }
      }
      JOINT ShoulderRight
      {
        OFFSET 0.718081 -7.688584 -13.069097
        CHANNELS 3 Zrotation Xrotation Yrotation
        JOINT ElbowRight
        {
          OFFSET -2.762826 -28.606596 -5.565222
          CHANNELS 3 Zrotation Xrotation Yrotation
          JOINT WristRight
          {
            OFFSET -9.280626 -22.833275 -0.682500
            CHANNELS 3 Zrotation Xrotation Yrotation
            JOINT HandRight
            {
              OFFSET -2.118796 -7.078111 2.340421
              CHANNELS 3 Zrotation Xrotation Yrotation
              JOINT HandTipRight
              {
                OFFSET -3.929554 -5.695736 -1.464108
                CHANNELS 3 Zrotation Xrotation Yrotation
                End Site
                {
                  OFFSET 0 0 0
                }
              }
              JOINT ThumbRight
              {
                OFFSET 4.580021 -2.264071 3.593449
                CHANNELS 3 Zrotation Xrotation Yrotation
                End Site
                {
                  OFFSET 0 0 0
                }
              }
            }
          }
        }
      }
    }
  }
  JOINT HipLeft
  {
    OFFSET -3.136095 -0.635858 2.851436
    CHANNELS 3 Zrotation Xrotation Yrotation
    JOINT KneeLeft
    {
      OFFSET 5.729353 -41.032531 4.868804
      CHANNELS 3 Zrotation Xrotation Yrotation
      JOINT AnkleLeft
      {
        OFFSET 2.516682 -32.399115 8.401254
        CHANNELS 3 Zrotation Xrotation Yrotation
        JOINT FootLeft
        {
          OFFSET -9.703533 -3.973548 -8.403633
          CHANNELS 3 Zrotation Xrotation Yrotation
          End Site
          {
            OFFSET 0 0 0
          }
        }
      }
    }
  }
  JOINT HipRight
  {
    OFFSET 3.527102 1.594076 -10.205213
    CHANNELS 3 Zrotation Xrotation Yrotation
    JOINT KneeRight
    {
      OFFSET -8.843957 -40.489680 5.509211
      CHANNELS 3 Zrotation Xrotation Yrotation
      JOINT AnkleRight
      {
        OFFSET 1.422547 -38.935322 2.036730
        CHANNELS 3 Zrotation Xrotation Yrotation
        JOINT FootRight
        {
          OFFSET -9.593425 -3.864982 -8.356488
          CHANNELS 3 Zrotation Xrotation Yrotation
          End Site
          {
            OFFSET 0 0 0
          }
        }
      }
    }
  }
}
MOTION
Frames: 16
Frame Time: 0.033333
-13.459199 82.280991 294.953568 -0.000000 0.000000 62.963425 0.000000 -0.000000 -62.963425 -0.000000 0.000000 0.000000 -0.000000 0.000000 0.000000 0.000000 0.000000 0.000000 -0.000000 0.000000 0.000000 -0.000000 0.000000 0.000000 -0.000000 0.000000 0.000000 -0.000000 0.000000 0.000000 0.000000 0.000000 0.000000 0.000000 0.000000 0.000000 -0.000000 0.000000 0.000000 -0.000000 0.000000 0.000000 -0.000000 0.000000 0.000000 -0.000000 0.000000 0.000000 0.000000 0.000000 0.000000 0.000000 0.000000 0.000000 0.000000 -0.000000 -62.963425 -0.000000 0.000000 0.000000 -0.000000 0.000000 0.000000 0.000000 0.000000 0.000000 0.000000 -0.000000 -62.963425 -0.000000 0.000000 0.000000 -0.000000 0.000000 0.000000 0.000000 0.000000 0.000000
-13.164297 82.262971 295.489420 0.391524 -0.482091 62.971119 0.251512 0.567841 -62.970718 -0.000000 0.000000 0.000000 -0.000000 0.000000 0.000000 0.000000 0.000000 0.000000 -0.000000 0.000000 0.000000 -0.000000 0.000000 0.000000 -0.000000 0.000000 0.000000 -0.000000 0.000000 0.000000 0.000000 0.000000 0.000000 0.000000 0.000000 0.000000 -0.000000 0.000000 0.000000 -0.000000 0.000000 0.000000 1.549837 1.122657 0.162420 -0.991612 -2.059475 0.328879 0.000000 0.000000 0.000000 0.000000 0.000000 0.000000 -0.330880 -0.749570 -63.019726 -2.604543 3.233125 -0.154098 1.701162 -2.110484 0.306714 0.000000 0.000000 0.000000 0.251512 0.567841 -62.970718 -0.000000 0.000000 0.000000 -0.000000 0.000000 0.000000 0.000000 0.000000 0.000000
-12.913055 82.252248 295.966346 0.716375 -0.888870 63.021028 0.467141 1.041655 -63.019718 -0.000000 0.000000 0.000000 -0.000000 0.000000 0.000000 0.000000 0.000000 0.000000 -0.000000 0.000000 0.000000 -0.000000 0.000000 0.000000 -0.000000 0.000000 0.000000 -0.615545 -0.637755 0.308098 0.000000 0.000000 0.000000 0.000000 0.000000 0.000000 -0.000000 0.000000 0.000000 -0.000000 0.000000 0.000000 2.855671 2.123574 0.259273 -1.800476 -3.959234 0.698469 0.000000 0.000000 0.000000 0.000000 0.000000 0.000000 -0.527299 -1.237934 -63.101758 -4.605868 5.679653 -0.183856 3.039149 -3.744060 0.590450 0.000000 0.000000 0.000000 1.225849 2.279682 -63.415340 0.767601 -1.232365 0.381889 -0.000000 0.000000 0.000000 0.000000 0.000000 0.000000
-12.705474 82.248824 296.384346 0.974614 -1.220411 63.112175 0.100172 0.560787 -63.084579 -0.519460 0.877565 -0.011800 -0.000000 0.000000 0.000000 0.000000 0.000000 0.000000 -0.000000 0.000000 0.000000 -0.000000 0.000000 0.000000 -0.000000 0.000000 0.000000 -0.860176 -0.805100 0.410273 0.000000 0.000000 0.000000 0.000000 0.000000 0.000000 0.481035 -0.745912 -0.018441 -0.481316 0.745731 0.024705 3.924388 3.004630 0.301242 -2.435557 -5.694988 1.104974 0.000000 0.000000 0.000000 0.000000 0.000000 0.000000 -0.588327 -1.464029 -63.206995 -6.003905 7.341397 -0.169528 4.010395 -4.908351 0.819443 0.000000 0.000000 0.000000 1.720422 3.131831 -63.671964 1.057455 -1.719692 0.535391 -0.000000 0.000000 0.000000 0.000000 0.000000 0.000000
-12.541554 82.252697 296.743421 1.166273 -1.476798 63.243530 0.102153 0.606977 -63.205977 -0.669788 1.112513 -0.013879 -0.000000 0.000000 0.000000 0.000000 0.000000 0.000000 -0.000000 0.000000 0.000000 -0.000000 0.000000 0.000000 -0.000000 0.000000 0.000000 -1.063145 -0.870994 0.479003 0.000000 0.000000 0.000000 0.000000 0.000000 0.000000 0.630802 -0.933437 -0.027486 -0.631334 0.933078 0.037765 4.760777 3.768240 0.296899 -2.903661 -7.262724 1.543809 0.000000 0.000000 0.000000 0.000000 0.000000 0.000000 -0.512752 -1.428385 -63.334328 -6.796284 8.226909 -0.166471 4.613882 -5.613702 0.971559 0.000000 0.000000 0.000000 2.136585 3.792000 -63.942895 1.283806 -2.121861 0.661928 -0.000000 0.000000 0.000000 0.000000 0.000000 0.000000
-12.421295 82.263869 297.043570 1.291348 -1.658088 63.414034 0.087964 0.582818 -63.367990 -0.425948 0.463980 0.006110 -0.382731 0.854958 -0.024561 0.000000 0.000000 0.000000 -0.382731 0.854958 -0.024561 -0.000000 0.000000 0.000000 -0.000000 0.000000 0.000000 -1.224651 -0.835427 0.514938 0.000000 0.000000 0.000000 0.000000 0.000000 0.000000 0.391686 -0.235409 -0.074349 -0.769651 1.868993 -0.264228 5.334754 3.670016 0.642140 -3.208606 -8.658568 2.010329 0.000000 0.000000 0.000000 0.000000 0.000000 0.000000 -0.298762 -1.132312 -63.484068 -6.982126 8.343962 -0.204880 4.849848 -5.868639 1.033657 0.000000 0.000000 0.000000 2.473701 4.260522 -64.224186 1.446178 -2.439423 0.760370 -0.000000 0.000000 0.000000 0.000000 0.000000 0.000000
-12.262593 82.289696 297.402189 1.435389 -1.868072 63.598419 0.063205 0.499826 -63.540884 -0.517242 0.610381 0.009489 -0.497255 0.979435 -0.031774 0.000000 0.000000 0.000000 -0.497255 0.979435 -0.031774 -0.000000 0.000000 0.000000 -0.000000 0.000000 0.000000 -1.321219 -0.589393 0.489265 0.000000 0.000000 0.000000 0.000000 0.000000 0.000000 0.433972 -0.227684 -0.102852 -0.723602 2.019012 -0.268184 5.534583 4.330095 0.545208 -2.732363 -10.544079 2.838206 0.000000 0.000000 0.000000 0.000000 0.000000 0.000000 0.135544 -0.480546 -63.626377 -6.840307 7.874068 -0.315805 4.967967 -5.859078 1.070068 0.000000 0.000000 0.000000 2.878154 4.830124 -64.549274 1.658169 -2.828761 0.884382 0.429618 -0.543344 0.430233 0.000000 0.000000 0.000000
-12.183617 82.320385 297.653664 1.473372 -1.959392 63.833499 0.020434 0.342695 -63.769427 -0.582075 0.740083 0.012434 -0.591045 1.050728 -0.037748 0.000000 0.000000 0.000000 -0.591045 1.050728 -0.037748 -0.000000 0.000000 0.000000 0.331261 0.681036 -0.508501 -2.624817 -0.708862 1.113242 0.000000 0.000000 0.000000 0.000000 0.000000 0.000000 0.486853 -0.270123 -0.127753 -0.652880 2.184680 -0.283128 5.396071 4.580659 0.494368 -2.388515 -11.747006 3.535838 0.000000 0.000000 0.000000 0.000000 0.000000 0.000000 0.989873 1.165829 -63.801328 -4.671173 5.178023 -0.464269 4.299057 -5.146210 1.324346 0.000000 0.000000 0.000000 3.142159 5.077319 -64.866541 1.753249 -3.066501 0.955158 0.457211 -0.594031 0.498837 0.000000 0.000000 0.000000
-12.185858 82.353264 297.780889 1.409393 -1.924171 64.093608 -0.043252 0.124404 -64.028618 -0.619404 0.848490 0.014521 -0.657286 1.061327 -0.042246 0.000000 0.000000 0.000000 -0.657286 1.061327 -0.042246 -0.000000 0.000000 0.000000 0.669844 0.822334 -0.728709 -3.132902 -0.528401 1.298482 0.000000 0.000000 0.000000 0.000000 0.000000 0.000000 0.543494 -0.328040 -0.150012 -0.575745 2.287232 -0.290896 5.101577 4.844952 0.380910 -3.030933 -12.607945 4.149096 0.000000 0.000000 0.000000 0.000000 0.000000 0.000000 1.115081 2.108372 -64.090458 -3.402698 4.209371 -0.435542 3.884261 -4.768782 1.279389 0.000000 0.000000 0.000000 3.243441 5.007202 -65.145936 1.735220 -3.147500 0.971021 0.454262 -0.615775 0.560757 0.000000 0.000000 0.000000
-12.395595 82.407951 297.642129 1.085311 -1.602366 64.527892 -0.168325 -0.261400 -64.474523 -0.568353 0.863886 0.015987 -0.678857 1.003942 -0.044253 0.000000 0.000000 0.000000 -0.678857 1.003942 -0.044253 -0.000000 0.000000 0.000000 0.806776 1.057452 -0.915565 -3.137321 -0.653848 1.412262 0.000000 0.000000 0.000000 0.000000 0.000000 0.000000 0.627106 -0.433479 -0.166763 -0.515473 2.349586 -0.290345 4.918249 4.538643 0.491678 -4.919963 -11.066126 3.320550 0.000000 0.000000 0.000000 0.000000 0.000000 0.000000 0.888834 0.505841 -64.486708 -4.686232 5.330845 -0.433757 4.099041 -5.257924 1.364795 0.000000 0.000000 0.000000 3.006568 4.141359 -65.447325 1.406130 -2.869441 0.852806 0.380608 -0.565342 0.593448 0.000000 0.000000 0.000000
-12.514360 82.408680 297.550888 0.942079 -1.434877 64.568078 -0.191083 -0.376982 -64.520474 -0.521629 0.871121 0.016385 -0.677329 0.899223 -0.045083 0.000000 0.000000 0.000000 -0.677329 0.899223 -0.045083 -0.000000 0.000000 0.000000 0.771057 1.484386 -1.133370 -3.344174 -0.414357 1.533011 0.000000 0.000000 0.000000 0.000000 0.000000 0.000000 0.695912 -0.547327 -0.177577 -0.474946 2.369452 -0.288736 4.572798 4.407809 0.468551 -6.771598 -8.864125 2.148695 0.000000 0.000000 0.000000 0.000000 0.000000 0.000000 0.891302 1.466954 -64.567692 -2.774562 3.685557 -0.347481 3.137812 -4.187597 1.148005 0.000000 0.000000 0.000000 2.808009 3.746915 -65.415588 1.275337 -2.690467 0.790642 0.338846 -0.533564 0.603852 0.000000 0.000000 0.000000
-12.649067 82.382761 297.334250 0.818848 -1.182107 64.390622 -0.229504 -0.419043 -64.349267 -0.463818 0.829945 0.015288 -0.632502 0.741093 -0.043269 0.000000 0.000000 0.000000 -0.632502 0.741093 -0.043269 -0.000000 0.000000 0.000000 0.779949 1.740133 -1.276496 -3.355406 -0.801991 1.688075 0.000000 0.000000 0.000000 0.000000 0.000000 0.000000 0.764489 -0.671405 -0.180301 -0.467943 2.376739 -0.299574 3.788177 4.632863 0.161852 -5.477313 -10.602418 3.443564 0.000000 0.000000 0.000000 0.000000 0.000000 0.000000 0.777473 0.273138 -64.333763 -3.827162 4.349431 -0.386040 2.952703 -3.960127 0.554109 0.000000 0.000000 0.000000 2.375711 3.299445 -65.131325 1.160057 -2.370876 0.699355 -0.000000 0.000000 0.000000 0.000000 0.000000 0.000000
-12.492527 82.368161 297.435609 1.077814 -1.328905 64.114354 -0.187562 -0.155851 -64.065409 -0.497590 0.855592 0.014717 -0.637243 0.711010 -0.043869 0.000000 0.000000 0.000000 -0.637243 0.711010 -0.043869 -0.000000 0.000000 0.000000 0.601579 2.181793 -1.438428 -3.806177 -1.005462 1.936422 0.000000 0.000000 0.000000 0.000000 0.000000 0.000000 0.781857 -0.674498 -0.187433 -0.509042 2.403721 -0.313570 3.397756 4.372667 0.132810 -3.898087 -12.062611 4.623451 0.000000 0.000000 0.000000 0.000000 0.000000 0.000000 0.725018 1.549820 -64.111660 -2.097407 2.791097 -0.278130 2.113412 -2.779002 0.380501 0.000000 0.000000 0.000000 2.387347 3.911638 -64.933269 1.434868 -2.505460 0.773768 0.339662 -0.507227 0.535190 0.000000 0.000000 0.000000
-12.364880 82.334986 297.482455 1.270773 -1.391021 63.776342 -0.192112 -0.001743 -63.721115 -0.535067 0.861076 0.014465 -0.650971 0.704036 -0.044922 0.000000 0.000000 0.000000 -0.650971 0.704036 -0.044922 -0.000000 0.000000 0.000000 0.535727 2.559038 -1.613148 -3.267708 -1.451133 1.993494 0.000000 0.000000 0.000000 0.000000 0.000000 0.000000 0.780335 -0.660728 -0.192971 -0.554901 2.421486 -0.322872 3.439863 4.406788 0.128794 -3.892586 -11.534021 4.207585 0.000000 0.000000 0.000000 0.000000 0.000000 0.000000 1.624808 2.561916 -63.676068 -1.474222 0.994185 -0.425814 2.184564 -2.702912 0.830458 0.000000 0.000000 0.000000 2.305735 4.372097 -64.649899 1.672036 -2.583044 0.829602 0.379497 -0.525100 0.493549 0.000000 0.000000 0.000000
-12.282079 82.233684 297.489144 1.385323 -1.401828 63.524667 -0.193073 0.080693 -63.465746 -0.566244 0.837397 0.014125 -0.659328 0.702313 -0.045541 0.000000 0.000000 0.000000 -0.659328 0.702313 -0.045541 -0.000000 0.000000 0.000000 0.624808 2.691686 -1.723939 -4.470410 -0.770913 2.191537 0.000000 0.000000 0.000000 0.000000 0.000000 0.000000 0.789648 -0.646175 -0.198789 -0.618990 2.446846 -0.331984 3.687412 4.631000 0.119221 -4.177289 -10.165418 3.045045 0.000000 0.000000 0.000000 0.000000 0.000000 0.000000 1.598004 2.650562 -63.419507 -1.693544 0.986403 -0.480586 1.985484 -2.179497 0.380958 0.000000 0.000000 0.000000 2.175082 4.652864 -64.423519 1.850909 -2.589608 0.859808 -0.000000 0.000000 0.000000 0.000000 0.000000 0.000000
-12.282319 82.091996 297.433884 1.388117 -1.357892 63.349676 -0.197740 0.087114 -63.291289 -0.561956 0.763840 0.014207 -0.658201 0.732730 -0.045193 0.000000 0.000000 0.000000 -0.658201 0.732730 -0.045193 -0.000000 0.000000 0.000000 0.663908 2.792014 -1.795331 -3.863418 -0.704956 2.067816 0.000000 0.000000 0.000000 0.000000 0.000000 0.000000 0.788711 -0.585062 -0.202155 -0.600661 2.430006 -0.336177 3.930933 4.849829 0.125939 -5.115178 -9.885723 2.713808 0.000000 0.000000 0.000000 0.000000 0.000000 0.000000 0.590908 1.849683 -63.342764 -2.657732 2.851916 -0.404883 2.681083 -2.829978 0.537291 0.000000 0.000000 0.000000 2.000425 4.654081 -64.227042 1.912825 -2.487567 0.845828 -0.000000 0.000000 0.000000 0.000000 0.000000 0.000000
